{"title":"WAR(2007)MPEG-4[DaScubaDude]","uid":15247581,"size":1129823341,"categoryP":"video","categoryS":"movies","magnet":"?xt=urn:btih:a0e5d1bcb90fca0addd4a46dcc8ebd8826c46a71&amp;dn=WAR%282007%29MPEG-4%5BDaScubaDude%5D&amp;tr=udp%3A%2F%2Ftracker.leechers-paradise.org%3A6969&amp;tr=udp%3A%2F%2Fzer0day.ch%3A1337&amp;tr=udp%3A%2F%2Fopen.demonii.com%3A1337&amp;tr=udp%3A%2F%2Ftracker.coppersurfer.tk%3A6969&amp;tr=udp%3A%2F%2Fexodus.desync.com%3A6969","seeders":0,"leechers":0,"uploader":"dascuba","files":1,"time":1468018782,"description":"War (2007)\r\nR | 1h 43min | Action, Crime, Thriller | 24 August 2007 (USA)\r\nAn FBI Agent seeks vengeance on a mysterious assassin known as &quot;Rogue&quot; who murdered his partner.\r\nDirector: Philip G. Atwell\r\nWriters: Lee Anthony Smith, Gregory J. Bradley\r\nStars: Jet Li, Jason Statham, Nadine Velazquez |\r\n\r\nGeneral\r\nComplete name                            : WARWAR_Title1.mp4\r\nFormat                                   : MPEG-4\r\nFormat profile                           : Base Media\r\nCodec ID                                 : isom (isom/iso2/avc1/mp41)\r\nFile size                                : 1.05 GiB\r\nDuration                                 : 1h 42mn\r\nOverall bit rate                         : 1 463 Kbps\r\nMovie name                               : WAR\r\nGenre                                    : Action\r\nWriting application                      : Lavf54.6.100\r\n\r\nVideo\r\nID                                       : 1\r\nFormat                                   : AVC\r\nFormat/Info                              : Advanced Video Codec\r\nFormat profile                           :   \r\nFormat settings, CABAC                   : No\r\nFormat settings, ReFrames                : 6 frames\r\nCodec ID                                 : avc1\r\nCodec ID/Info                            : Advanced Video Coding\r\nDuration                                 : 1h 42mn\r\nBit rate                                 : 1 192 Kbps\r\nWidth                                    : 720 pixels\r\nHeight                                   : 404 pixels\r\nDisplay aspect ratio                     : 16:9\r\nFrame rate mode                          : Constant\r\nFrame rate                               : 29.970 (30000/1001) fps\r\nColor space                              : YUV\r\nChroma subsampling                       : 4:2:0\r\nBit depth                                : 8 bits\r\nScan type                                : Progressive\r\nBits/(Pixel*Frame)                       : 0.137\r\nStream size                              : 878 MiB (81%)\r\n\r\nAudio\r\nID                                       : 2\r\nFormat                                   : AAC\r\nFormat/Info                              : Advanced Audio Codec\r\nFormat profile                           : LC\r\nCodec ID                                 : 40\r\nDuration                                 : 1h 42mn\r\nBit rate mode                            : Constant\r\nBit rate                                 : 265 Kbps\r\nChannel(s)                               : 2 channels\r\nChannel(s)_Original                      : 6 channels\r\nChannel positions                        : Front: L C R, Side: L R, LFE\r\nSampling rate                            : 44.1 KHz\r\nFrame rate                               : 43.066 fps (1024 spf)\r\nCompression mode                         : Lossy\r\nStream size                              : 194 MiB (18%)\r\nDefault                                  : Yes\r\nAlternate group                          : 1","torrent":{"xt":"urn:btih:a0e5d1bcb90fca0addd4a46dcc8ebd8826c46a71","amp;dn":"WAR%282007%29MPEG-4%5BDaScubaDude%5D","amp;tr":["udp%3A%2F%2Ftracker.leechers-paradise.org%3A6969","udp%3A%2F%2Fzer0day.ch%3A1337","udp%3A%2F%2Fopen.demonii.com%3A1337","udp%3A%2F%2Ftracker.coppersurfer.tk%3A6969","udp%3A%2F%2Fexodus.desync.com%3A6969"],"infoHash":"a0e5d1bcb90fca0addd4a46dcc8ebd8826c46a71","infoHashBuffer":{"type":"Buffer","data":[160,229,209,188,185,15,202,10,221,212,164,109,204,142,189,136,38,196,106,113]},"announce":[],"urlList":[]}}